<svg width="21" height="21" viewBox="0 0 21 21" fill="none" xmlns="http://www.w3.org/2000/svg">
<path fill-rule="evenodd" clip-rule="evenodd" d="M2.51087 1.75C2.09065 1.75 1.75 2.09065 1.75 2.51087V13.9239C1.75 14.1696 1.86867 14.4002 2.06862 14.5431L7.39471 18.3474C7.62663 18.5131 7.93169 18.5352 8.18512 18.4048C8.43854 18.2744 8.59783 18.0133 8.59783 17.7283V14.6848H11.6413C12.0615 14.6848 12.4022 14.3441 12.4022 13.9239V10.8804C12.4022 10.4602 12.0615 10.1196 11.6413 10.1196C11.2211 10.1196 10.8804 10.4602 10.8804 10.8804V13.163H8.59783V6.32739C8.59783 6.08207 8.47955 5.8518 8.28014 5.70891L4.87897 3.27174H10.8804V6.31522C10.8804 6.73543 11.2211 7.07609 11.6413 7.07609C12.0615 7.07609 12.4022 6.73543 12.4022 6.31522V2.51087C12.4022 2.09065 12.0615 1.75 11.6413 1.75H2.51087ZM3.27174 13.5324L7.07609 16.2497V6.71822L3.27174 3.99213V13.5324Z" fill="#00204D" fill-opacity="0.6" style="mix-blend-mode:multiply"/>
<path d="M15.9837 5.01633C15.6865 4.71919 15.2048 4.71919 14.9076 5.01633C14.6105 5.31347 14.6105 5.79523 14.9076 6.09236L16.6522 7.83696H10.1196C9.69935 7.83696 9.3587 8.17761 9.3587 8.59783C9.3587 9.01804 9.69935 9.3587 10.1196 9.3587H16.6522L14.9076 11.1033C14.6105 11.4004 14.6105 11.8822 14.9076 12.1793C15.2048 12.4765 15.6865 12.4765 15.9837 12.1793L19.0266 9.1364L19.0313 9.13167C19.1771 8.98363 19.25 8.79073 19.25 8.59783C19.25 8.4031 19.1757 8.20838 19.0271 8.05981L15.9837 5.01633Z" fill="#00204D" fill-opacity="0.6" style="mix-blend-mode:multiply"/>
</svg>
